<svg width="1910" height="1910" viewBox="0 0 1910 1910" fill="none" xmlns="http://www.w3.org/2000/svg">
<g id="915website-logo">
<path id="sign-bg" d="M1806.62 1208.24C1601.41 1647.68 1167.47 1859.52 957.123 1902.4C762.953 1881.36 319.275 1713.08 97.9213 1208.24C-123.432 703.396 115.72 198.554 262.966 9.23804C317.172 27.846 460.048 65.0618 597.909 65.0618C735.77 65.0618 894.827 27.846 957.123 9.23804C1029.13 28.655 1200.81 67.0035 1311.48 65.0618C1422.16 63.1201 1582.51 27.0369 1648.85 9.23804C1774.26 220.398 2046.9 693.687 1806.62 1208.24Z" fill="white" stroke="black" stroke-width="15"/>
<path id="sign-fg" d="M1806.62 1208.24C1601.41 1647.68 1167.47 1859.52 957.122 1902.39C767.181 1881.82 339.444 1726.35 113.657 1246.75C113.657 1246.75 267.768 932.913 1006.05 857.151C1618.76 794.275 1810.04 508.183 1815.06 340.029C1905.78 576.224 1958.01 884.041 1806.62 1208.24Z" fill="url(#paint0_linear_434_139)"/>
<path id="sign-stroke" d="M1806.62 1208.24C1601.41 1647.68 1167.47 1859.52 957.123 1902.4C762.953 1881.36 319.275 1713.08 97.9213 1208.24C-123.432 703.396 115.72 198.554 262.966 9.23804C317.172 27.846 460.048 65.0618 597.909 65.0618C735.77 65.0618 894.827 27.846 957.123 9.23804C1029.13 28.655 1200.81 67.0035 1311.48 65.0618C1422.16 63.1201 1582.51 27.0369 1648.85 9.23804C1774.26 220.398 2046.9 693.687 1806.62 1208.24Z" stroke="black" stroke-width="15"/>
<path id="sign-bottom-bg" d="M1750.7 1190.25C1558.96 1598.37 1153.53 1795.11 956.998 1834.94C775.581 1815.4 361.044 1659.11 154.229 1190.25C39.1633 929.386 57.2839 668.524 119.701 458.13H1784.88C1851.74 665.927 1876.69 922.053 1750.7 1190.25Z" fill="#003E87"/>
<path id="sign-bottom-fg" d="M1750.7 1190.25C1558.96 1598.37 1153.53 1795.11 956.998 1834.94C775.581 1815.4 361.044 1659.11 154.229 1190.25C154.229 1190.25 353.511 925.202 998.562 859.043C1643.61 792.884 1784.88 458.13 1784.88 458.13C1851.74 665.927 1876.69 922.053 1750.7 1190.25Z" fill="url(#paint1_linear_434_139)"/>
<path id="sign-top-bg" d="M1291.44 127.736C1394.85 125.933 1544.67 92.4211 1606.65 75.8906C1654.3 155.641 1724.69 275.65 1776.36 422.124H134.055C183.795 270.61 255.086 148.359 311.789 75.8906C362.435 93.1725 495.927 127.736 624.733 127.736C753.539 127.736 902.149 93.1725 960.353 75.8906C1027.63 93.9238 1188.03 129.539 1291.44 127.736Z" fill="#B73043"/>
<path id="sign-top-fg" d="M134.055 422.124C570.782 199.654 1121.05 331.062 1606.65 75.8906C1654.3 155.641 1724.69 275.65 1776.36 422.124H134.055Z" fill="url(#paint2_linear_434_139)"/>
<g id="website">
<path d="M459.208 1203.45H505.349L526.678 1437.64H527.549L550.184 1203.45H602.419L625.054 1437.64H625.925L647.254 1203.45H688.607L657.701 1508.16H598.066L576.302 1302.7H575.431L553.666 1508.16H490.114L459.208 1203.45Z" fill="white"/>
<path d="M691.062 1203.45H821.65V1246.98H738.944V1327.51H804.673V1371.04H738.944V1464.63H821.65V1508.16H691.062V1203.45Z" fill="white"/>
<path d="M827.431 1203.45H899.69C924.356 1203.45 942.348 1209.25 953.666 1220.86C964.983 1232.18 970.642 1249.74 970.642 1273.53V1285.72C970.642 1301.39 968.03 1314.16 962.807 1324.03C957.874 1333.89 950.183 1341 939.736 1345.36V1346.23C963.532 1354.35 975.43 1375.54 975.43 1409.78V1435.9C975.43 1459.4 969.191 1477.39 956.713 1489.87C944.525 1502.06 926.533 1508.16 902.737 1508.16H827.431V1203.45ZM894.031 1327.51C903.607 1327.51 910.717 1325.04 915.36 1320.11C920.293 1315.18 922.76 1306.91 922.76 1295.3V1278.32C922.76 1267.29 920.729 1259.31 916.666 1254.38C912.893 1249.45 906.799 1246.98 898.384 1246.98H875.313V1327.51H894.031ZM902.737 1464.63C911.152 1464.63 917.391 1462.45 921.454 1458.1C925.517 1453.45 927.548 1445.62 927.548 1434.59V1408.04C927.548 1394.11 925.082 1384.53 920.148 1379.31C915.505 1373.8 907.67 1371.04 896.643 1371.04H875.313V1464.63H902.737Z" fill="white"/>
<path d="M1043.9 1512.51C1020.68 1512.51 1003.13 1505.98 991.23 1492.92C979.332 1479.57 973.383 1460.56 973.383 1435.9V1418.49H1018.65V1439.38C1018.65 1459.11 1026.92 1468.98 1043.47 1468.98C1051.59 1468.98 1057.68 1466.66 1061.75 1462.01C1066.1 1457.08 1068.28 1449.25 1068.28 1438.51C1068.28 1425.74 1065.37 1414.57 1059.57 1404.99C1053.77 1395.12 1043.03 1383.37 1027.36 1369.73C1007.63 1352.32 993.842 1336.65 986.007 1322.72C978.171 1308.5 974.254 1292.54 974.254 1274.84C974.254 1250.75 980.348 1232.18 992.536 1219.12C1004.72 1205.77 1022.43 1199.1 1045.64 1199.1C1068.57 1199.1 1085.83 1205.77 1097.44 1219.12C1109.34 1232.18 1115.29 1251.04 1115.29 1275.71V1288.33H1070.02V1272.66C1070.02 1262.22 1067.99 1254.67 1063.92 1250.03C1059.86 1245.09 1053.91 1242.63 1046.08 1242.63C1030.12 1242.63 1022.14 1252.35 1022.14 1271.79C1022.14 1282.82 1025.04 1293.12 1030.84 1302.7C1036.94 1312.27 1047.82 1323.88 1063.49 1337.52C1083.51 1354.93 1097.3 1370.75 1104.84 1384.97C1112.39 1399.19 1116.16 1415.87 1116.16 1435.03C1116.16 1459.98 1109.92 1479.14 1097.44 1492.49C1085.25 1505.83 1067.41 1512.51 1043.9 1512.51Z" fill="white"/>
<path d="M1121.85 1203.45H1169.73V1508.16H1121.85V1203.45Z" fill="white"/>
<path d="M1221.26 1246.98H1171.2V1203.45H1319.2V1246.98H1269.14V1508.16H1221.26V1246.98Z" fill="white"/>
<path d="M1320.62 1203.45H1451.21V1246.98H1368.5V1327.51H1434.23V1371.04H1368.5V1464.63H1451.21V1508.16H1320.62V1203.45Z" fill="white"/>
</g>
<path id="915" d="M636.081 1165.53C588.081 1165.53 551.481 1152.03 526.281 1125.03C501.081 1097.43 488.481 1058.13 488.481 1007.13V995.433H582.081V1013.43C582.081 1054.83 599.181 1075.53 633.381 1075.53C651.981 1075.53 665.781 1069.83 674.781 1058.43C683.781 1047.03 688.281 1026.93 688.281 998.133V877.533H686.481C669.081 914.133 639.081 932.433 596.481 932.433C560.481 932.433 533.181 920.133 514.581 895.533C495.981 870.933 486.681 835.233 486.681 788.433V675.933C486.681 625.533 499.581 586.533 525.381 558.933C551.181 531.333 588.381 517.533 636.981 517.533C685.581 517.533 722.781 531.333 748.581 558.933C774.381 586.533 787.281 625.533 787.281 675.933V1001.73C787.281 1110.93 736.881 1165.53 636.081 1165.53ZM636.981 842.433C671.181 842.433 688.281 821.733 688.281 780.333V668.733C688.281 627.933 671.181 607.533 636.981 607.533C602.781 607.533 585.681 627.933 585.681 668.733V780.333C585.681 821.733 602.781 842.433 636.981 842.433ZM950.532 675.933H847.032V605.733C875.232 605.733 897.732 603.333 914.532 598.533C931.932 593.733 945.732 585.933 955.932 575.133C966.132 563.733 975.132 547.533 982.932 526.533H1049.53V1156.53H950.532V675.933ZM1272.18 1165.53C1224.18 1165.53 1187.58 1152.03 1162.38 1125.03C1137.18 1097.43 1124.58 1058.13 1124.58 1007.13V957.633H1218.18V1014.33C1218.18 1055.13 1235.28 1075.53 1269.48 1075.53C1303.68 1075.53 1320.78 1055.13 1320.78 1014.33V873.033C1320.78 831.633 1303.68 810.933 1269.48 810.933C1235.28 810.933 1218.18 831.633 1218.18 873.033V878.433H1124.58L1142.58 526.533H1403.58V616.533H1230.78L1222.68 766.833H1224.48C1243.08 736.233 1271.58 720.933 1309.98 720.933C1345.98 720.933 1373.28 733.233 1391.88 757.833C1410.48 782.433 1419.78 818.133 1419.78 864.933V1007.13C1419.78 1058.13 1407.18 1097.43 1381.98 1125.03C1356.78 1152.03 1320.18 1165.53 1272.18 1165.53Z" fill="white"/>
<path id="star" d="M952.354 124.211C953.253 121.672 957.163 121.672 958.061 124.211L992.404 221.284C992.805 222.419 993.957 223.188 995.257 223.188H1106.39C1109.3 223.188 1110.51 226.603 1108.16 228.172L1018.25 288.166C1017.19 288.868 1016.75 290.112 1017.16 291.247L1051.5 388.32C1052.4 390.858 1049.23 392.969 1046.88 391.4L956.971 331.406C955.92 330.704 954.496 330.704 953.444 331.406L863.533 391.4C861.182 392.969 858.019 390.858 858.917 388.32L893.26 291.247C893.661 290.112 893.221 288.868 892.17 288.166L802.259 228.172C799.908 226.603 801.116 223.188 804.022 223.188H915.158C916.458 223.188 917.61 222.419 918.012 221.284L952.354 124.211Z" fill="white"/>
</g>
<defs>
<linearGradient id="paint0_linear_434_139" x1="1007.53" y1="340.029" x2="1007.53" y2="1902.39" gradientUnits="userSpaceOnUse">
<stop stop-color="#7D7D7D"/>
<stop offset="1" stop-color="#7D7D7D" stop-opacity="0"/>
</linearGradient>
<linearGradient id="paint1_linear_434_139" x1="997.19" y1="458.13" x2="997.19" y2="1834.94" gradientUnits="userSpaceOnUse">
<stop stop-color="#0C305A"/>
<stop offset="1" stop-color="#0C305A" stop-opacity="0"/>
</linearGradient>
<linearGradient id="paint2_linear_434_139" x1="955.207" y1="75.8906" x2="955.207" y2="422.124" gradientUnits="userSpaceOnUse">
<stop stop-color="#5B0713"/>
<stop offset="1" stop-color="#5B0713" stop-opacity="0"/>
</linearGradient>
</defs>
</svg>
