<svg width="1895" height="1894" viewBox="0 0 1895 1894" fill="none" xmlns="http://www.w3.org/2000/svg">
<g id="915website-logo">
<path id="sign-bg" d="M1798.62 1199.24C1593.41 1638.68 1159.47 1850.52 949.123 1893.4C754.953 1872.36 311.275 1704.08 89.9213 1199.24C-131.432 694.396 107.72 189.554 254.966 0.238037C309.172 18.846 452.048 56.0618 589.909 56.0618C727.77 56.0618 886.827 18.846 949.123 0.238037C1021.13 19.655 1192.81 58.0035 1303.48 56.0618C1414.16 54.1201 1574.51 18.0369 1640.85 0.238037C1766.26 211.398 2038.9 684.687 1798.62 1199.24Z" fill="white" stroke="black" stroke-width="15"/>
<path id="sign-fg" d="M1798.62 1199.24C1593.41 1638.68 1159.47 1850.52 949.122 1893.39C759.181 1872.82 331.444 1717.35 105.657 1237.75C105.657 1237.75 259.768 923.913 998.047 848.151C1610.76 785.275 1802.04 499.183 1807.06 331.029C1897.78 567.224 1950.01 875.041 1798.62 1199.24Z" fill="url(#paint0_linear_434_139)"/>
<path id="sign-stroke" d="M1798.62 1199.24C1593.41 1638.68 1159.47 1850.52 949.123 1893.4C754.953 1872.36 311.275 1704.08 89.9213 1199.24C-131.432 694.396 107.72 189.554 254.966 0.238037C309.172 18.846 452.048 56.0618 589.909 56.0618C727.77 56.0618 886.827 18.846 949.123 0.238037C1021.13 19.655 1192.81 58.0035 1303.48 56.0618C1414.16 54.1201 1574.51 18.0369 1640.85 0.238037C1766.26 211.398 2038.9 684.687 1798.62 1199.24Z" stroke="black" stroke-width="15"/>
<path id="sign-bottom-bg" d="M1742.7 1181.25C1550.96 1589.37 1145.53 1786.11 948.998 1825.94C767.581 1806.4 353.044 1650.11 146.229 1181.25C31.1633 920.386 49.2839 659.524 111.701 449.13H1776.88C1843.74 656.927 1868.69 913.053 1742.7 1181.25Z" fill="#003E87"/>
<path id="sign-bottom-fg" d="M1742.7 1181.25C1550.96 1589.37 1145.53 1786.11 948.998 1825.94C767.581 1806.4 353.044 1650.11 146.229 1181.25C146.229 1181.25 345.511 916.202 990.562 850.043C1635.61 783.884 1776.88 449.13 1776.88 449.13C1843.74 656.927 1868.69 913.053 1742.7 1181.25Z" fill="url(#paint1_linear_434_139)"/>
<path id="sign-top-bg" d="M1283.44 118.736C1386.85 116.933 1536.67 83.4211 1598.65 66.8906C1646.3 146.641 1716.69 266.65 1768.36 413.124H126.055C175.795 261.61 247.086 139.359 303.789 66.8906C354.435 84.1725 487.927 118.736 616.733 118.736C745.539 118.736 894.149 84.1725 952.353 66.8906C1019.63 84.9238 1180.03 120.539 1283.44 118.736Z" fill="#B73043"/>
<path id="sign-top-fg" d="M126.055 413.124C562.782 190.654 1113.05 322.062 1598.65 66.8906C1646.3 146.641 1716.69 266.65 1768.36 413.124H126.055Z" fill="url(#paint2_linear_434_139)"/>
<g id="website">
<path d="M451.208 1194.45H497.349L518.678 1428.64H519.549L542.184 1194.45H594.419L617.054 1428.64H617.925L639.254 1194.45H680.607L649.701 1499.16H590.066L568.302 1293.7H567.431L545.666 1499.16H482.114L451.208 1194.45Z" fill="white"/>
<path d="M683.062 1194.45H813.65V1237.98H730.944V1318.51H796.673V1362.04H730.944V1455.63H813.65V1499.16H683.062V1194.45Z" fill="white"/>
<path d="M819.431 1194.45H891.69C916.356 1194.45 934.348 1200.25 945.666 1211.86C956.983 1223.18 962.642 1240.74 962.642 1264.53V1276.72C962.642 1292.39 960.03 1305.16 954.807 1315.03C949.874 1324.89 942.183 1332 931.736 1336.36V1337.23C955.532 1345.35 967.43 1366.54 967.43 1400.78V1426.9C967.43 1450.4 961.191 1468.39 948.713 1480.87C936.525 1493.06 918.533 1499.16 894.737 1499.16H819.431V1194.45ZM886.031 1318.51C895.607 1318.51 902.717 1316.04 907.36 1311.11C912.293 1306.18 914.76 1297.91 914.76 1286.3V1269.32C914.76 1258.29 912.729 1250.31 908.666 1245.38C904.893 1240.45 898.799 1237.98 890.384 1237.98H867.313V1318.51H886.031ZM894.737 1455.63C903.152 1455.63 909.391 1453.45 913.454 1449.1C917.517 1444.45 919.548 1436.62 919.548 1425.59V1399.04C919.548 1385.11 917.082 1375.53 912.148 1370.31C907.505 1364.8 899.67 1362.04 888.643 1362.04H867.313V1455.63H894.737Z" fill="white"/>
<path d="M1035.9 1503.51C1012.68 1503.51 995.128 1496.98 983.23 1483.92C971.332 1470.57 965.383 1451.56 965.383 1426.9V1409.49H1010.65V1430.38C1010.65 1450.11 1018.92 1459.98 1035.47 1459.98C1043.59 1459.98 1049.68 1457.66 1053.75 1453.01C1058.1 1448.08 1060.28 1440.25 1060.28 1429.51C1060.28 1416.74 1057.37 1405.57 1051.57 1395.99C1045.77 1386.12 1035.03 1374.37 1019.36 1360.73C999.626 1343.32 985.842 1327.65 978.007 1313.72C970.171 1299.5 966.254 1283.54 966.254 1265.84C966.254 1241.75 972.348 1223.18 984.536 1210.12C996.724 1196.77 1014.43 1190.1 1037.64 1190.1C1060.57 1190.1 1077.83 1196.77 1089.44 1210.12C1101.34 1223.18 1107.29 1242.04 1107.29 1266.71V1279.33H1062.02V1263.66C1062.02 1253.22 1059.99 1245.67 1055.92 1241.03C1051.86 1236.09 1045.91 1233.63 1038.08 1233.63C1022.12 1233.63 1014.14 1243.35 1014.14 1262.79C1014.14 1273.82 1017.04 1284.12 1022.84 1293.7C1028.94 1303.27 1039.82 1314.88 1055.49 1328.52C1075.51 1345.93 1089.3 1361.75 1096.84 1375.97C1104.39 1390.19 1108.16 1406.87 1108.16 1426.03C1108.16 1450.98 1101.92 1470.14 1089.44 1483.49C1077.25 1496.83 1059.41 1503.51 1035.9 1503.51Z" fill="white"/>
<path d="M1113.85 1194.45H1161.73V1499.16H1113.85V1194.45Z" fill="white"/>
<path d="M1213.26 1237.98H1163.2V1194.45H1311.2V1237.98H1261.14V1499.16H1213.26V1237.98Z" fill="white"/>
<path d="M1312.62 1194.45H1443.21V1237.98H1360.5V1318.51H1426.23V1362.04H1360.5V1455.63H1443.21V1499.16H1312.62V1194.45Z" fill="white"/>
</g>
<path id="915" d="M628.081 1156.53C580.081 1156.53 543.481 1143.03 518.281 1116.03C493.081 1088.43 480.481 1049.13 480.481 998.133V986.433H574.081V1004.43C574.081 1045.83 591.181 1066.53 625.381 1066.53C643.981 1066.53 657.781 1060.83 666.781 1049.43C675.781 1038.03 680.281 1017.93 680.281 989.133V868.533H678.481C661.081 905.133 631.081 923.433 588.481 923.433C552.481 923.433 525.181 911.133 506.581 886.533C487.981 861.933 478.681 826.233 478.681 779.433V666.933C478.681 616.533 491.581 577.533 517.381 549.933C543.181 522.333 580.381 508.533 628.981 508.533C677.581 508.533 714.781 522.333 740.581 549.933C766.381 577.533 779.281 616.533 779.281 666.933V992.733C779.281 1101.93 728.881 1156.53 628.081 1156.53ZM628.981 833.433C663.181 833.433 680.281 812.733 680.281 771.333V659.733C680.281 618.933 663.181 598.533 628.981 598.533C594.781 598.533 577.681 618.933 577.681 659.733V771.333C577.681 812.733 594.781 833.433 628.981 833.433ZM942.532 666.933H839.032V596.733C867.232 596.733 889.732 594.333 906.532 589.533C923.932 584.733 937.732 576.933 947.932 566.133C958.132 554.733 967.132 538.533 974.932 517.533H1041.53V1147.53H942.532V666.933ZM1264.18 1156.53C1216.18 1156.53 1179.58 1143.03 1154.38 1116.03C1129.18 1088.43 1116.58 1049.13 1116.58 998.133V948.633H1210.18V1005.33C1210.18 1046.13 1227.28 1066.53 1261.48 1066.53C1295.68 1066.53 1312.78 1046.13 1312.78 1005.33V864.033C1312.78 822.633 1295.68 801.933 1261.48 801.933C1227.28 801.933 1210.18 822.633 1210.18 864.033V869.433H1116.58L1134.58 517.533H1395.58V607.533H1222.78L1214.68 757.833H1216.48C1235.08 727.233 1263.58 711.933 1301.98 711.933C1337.98 711.933 1365.28 724.233 1383.88 748.833C1402.48 773.433 1411.78 809.133 1411.78 855.933V998.133C1411.78 1049.13 1399.18 1088.43 1373.98 1116.03C1348.78 1143.03 1312.18 1156.53 1264.18 1156.53Z" fill="white"/>
<path id="star" d="M944.354 115.211C945.253 112.672 949.163 112.672 950.061 115.211L984.404 212.284C984.805 213.419 985.957 214.188 987.257 214.188H1098.39C1101.3 214.188 1102.51 217.603 1100.16 219.172L1010.25 279.166C1009.19 279.868 1008.75 281.112 1009.16 282.247L1043.5 379.32C1044.4 381.858 1041.23 383.969 1038.88 382.4L948.971 322.406C947.92 321.704 946.496 321.704 945.444 322.406L855.533 382.4C853.182 383.969 850.019 381.858 850.917 379.32L885.26 282.247C885.661 281.112 885.221 279.868 884.17 279.166L794.259 219.172C791.908 217.603 793.116 214.188 796.022 214.188H907.158C908.458 214.188 909.61 213.419 910.012 212.284L944.354 115.211Z" fill="white"/>
</g>
<defs>
<linearGradient id="paint0_linear_434_139" x1="999.527" y1="331.029" x2="999.527" y2="1893.39" gradientUnits="userSpaceOnUse">
<stop stop-color="#7D7D7D"/>
<stop offset="1" stop-color="#7D7D7D" stop-opacity="0"/>
</linearGradient>
<linearGradient id="paint1_linear_434_139" x1="989.19" y1="449.13" x2="989.19" y2="1825.94" gradientUnits="userSpaceOnUse">
<stop stop-color="#0C305A"/>
<stop offset="1" stop-color="#0C305A" stop-opacity="0"/>
</linearGradient>
<linearGradient id="paint2_linear_434_139" x1="947.207" y1="66.8906" x2="947.207" y2="413.124" gradientUnits="userSpaceOnUse">
<stop stop-color="#5B0713"/>
<stop offset="1" stop-color="#5B0713" stop-opacity="0"/>
</linearGradient>
</defs>
</svg>
