<svg width="38" height="36" viewBox="0 0 38 36" fill="none" xmlns="http://www.w3.org/2000/svg">
<g id="icon-dont-do">
<rect id="Rectangle 16" x="2.11865" y="8.60162" width="21" height="21" rx="1.5" fill="white" stroke="#4DACDF" stroke-width="3"/>
<path id="Vector 3" d="M33.3 28.5945C33.2913 30.41 30.7254 30.9811 29.423 30.358C28.1205 29.7349 29.8701 29.7876 17.9215 20.0556C10.4334 13.9567 7.34823 8.58836 6.87999 7.58726C6.62423 7.04047 7.21198 5.13576 8.26046 5.18776C10.909 6.5182 13.1479 11.2354 21.3621 17.572L21.4817 17.6643C29.6125 23.9366 33.3087 26.7879 33.3 28.5945Z" fill="#FF0000"/>
<path id="Vector 4" d="M4.3504 24.8884C2.67907 24.0929 3.28881 21.5989 4.4408 20.7291C5.59278 19.8594 4.76907 21.3681 19.0424 15.1317C27.9873 11.2234 34.3076 10.8524 35.4387 10.8769C36.0566 10.8903 37.5537 12.2314 37.0412 13.1267C34.6403 14.8678 29.2958 14.7806 19.8098 19.2214L19.6716 19.2861C10.282 23.6817 6.01359 25.68 4.3504 24.8884Z" fill="#FF0000"/>
</g>
</svg>
